# xmcd
#
# Track frame offsets: 
#        150
#        3410
#        15336
#        27059
#        47174
#        60193
#        74102
#        87449
#        97713
#        110708
#        128194
#        138726
#        153968
#
# Disc length: 2346 seconds
#
# Revision: 0
# Processed by: cddbd v1.5PL3 Copyright (c) Steve Scherf et al.
# Submitted via: ExactAudioCopy v0.95a3
#
DISCID=a209280d
DTITLE=Lusatian Grass, The - Live Recordings 2002
DYEAR=2002
DGENRE=Bluegrass
TTITLE0=Intro (Theme of Joyful Dawn)
TTITLE1=Everything Goes On
TTITLE2=I'll Praise You And Thank
TTITLE3=You Don't Know What You Want
TTITLE4=A Quiet Place
TTITLE5=Narrow Is The Gate
TTITLE6=Ain't A Good Boy
TTITLE7=The Blackbird
TTITLE8=Dreams, Dreams, Dreams
TTITLE9=The Family Up There
TTITLE10=Happy Meeting
TTITLE11=Oh, Loneliness
TTITLE12=Joyful Dawn
EXTD=
EXTT0=
EXTT1=
EXTT2=
EXTT3=
EXTT4=
EXTT5=
EXTT6=
EXTT7=
EXTT8=
EXTT9=
EXTT10=
EXTT11=
EXTT12=
PLAYORDER=
